<svg xmlns="http://www.w3.org/2000/svg" style="display:none">
  <symbol id="icon-dashboard" viewBox="0 0 20 20" fill="none">
    <path d="M4 2.5h8l4 4v11A1.5 1.5 0 0 1 14.5 19h-10A1.5 1.5 0 0 1 3 17.5v-13A2 2 0 0 1 5 2.5Z" stroke="currentColor" stroke-width="1.7" stroke-linejoin="round"/>
    <path d="M12 2.5V7h4" stroke="currentColor" stroke-width="1.7" stroke-linecap="round"/>
    <path d="M6.5 10.5h6M6.5 13.5h6" stroke="currentColor" stroke-width="1.7" stroke-linecap="round"/>
  </symbol>

  <symbol id="icon-orders" viewBox="0 0 20 20" fill="none">
    <rect x="3" y="2.5" width="14" height="15" rx="2" stroke="currentColor" stroke-width="1.7"/>
    <path d="M6.5 6.5h7M6.5 10h7M6.5 13.5h4.5" stroke="currentColor" stroke-width="1.7" stroke-linecap="round"/>
  </symbol>

  <symbol id="icon-counterparties" viewBox="0 0 20 20" fill="none">
    <g clip-path="url(#clip0_32_79)">
      <path d="M5 18.3333V3.33332C5 2.8913 5.17559 2.46737 5.48816 2.15481C5.80072 1.84225 6.22464 1.66666 6.66667 1.66666H13.3333C13.7754 1.66666 14.1993 1.84225 14.5118 2.15481C14.8244 2.46737 15 2.8913 15 3.33332V18.3333H5Z" stroke="#22C55E" stroke-width="1.66667" stroke-linecap="round" stroke-linejoin="round"/>
      <path d="M5.00002 10H3.33335C2.89133 10 2.4674 10.1756 2.15484 10.4882C1.84228 10.8007 1.66669 11.2246 1.66669 11.6667V16.6667C1.66669 17.1087 1.84228 17.5326 2.15484 17.8452C2.4674 18.1577 2.89133 18.3333 3.33335 18.3333H5.00002" stroke="#22C55E" stroke-width="1.66667" stroke-linecap="round" stroke-linejoin="round"/>
      <path d="M15 7.5H16.6667C17.1087 7.5 17.5326 7.6756 17.8452 7.98816C18.1577 8.30072 18.3333 8.72464 18.3333 9.16667V16.6667C18.3333 17.1087 18.1577 17.5326 17.8452 17.8452C17.5326 18.1577 17.1087 18.3333 16.6667 18.3333H15" stroke="#22C55E" stroke-width="1.66667" stroke-linecap="round" stroke-linejoin="round"/>
      <path d="M8.33331 5H11.6666" stroke="#22C55E" stroke-width="1.66667" stroke-linecap="round" stroke-linejoin="round"/>
      <path d="M8.33331 8.33334H11.6666" stroke="#22C55E" stroke-width="1.66667" stroke-linecap="round" stroke-linejoin="round"/>
      <path d="M8.33331 11.6667H11.6666" stroke="#22C55E" stroke-width="1.66667" stroke-linecap="round" stroke-linejoin="round"/>
      <path d="M8.33331 15H11.6666" stroke="#22C55E" stroke-width="1.66667" stroke-linecap="round" stroke-linejoin="round"/>
    </g>
    <defs>
      <clipPath id="clip0_32_79">
        <rect width="20" height="20" fill="white"/>
      </clipPath>
    </defs>
  </symbol>

  <symbol id="icon-trips" viewBox="0 0 20 20" fill="none">
    <path d="M5 18.3333C6.38071 18.3333 7.5 17.214 7.5 15.8333C7.5 14.4526 6.38071 13.3333 5 13.3333C3.61929 13.3333 2.5 14.4526 2.5 15.8333C2.5 17.214 3.61929 18.3333 5 18.3333Z" stroke="#93C5FD" stroke-width="1.66667" stroke-linecap="round" stroke-linejoin="round"/>
    <path d="M7.5 15.8333H14.5833C15.3569 15.8333 16.0987 15.526 16.6457 14.9791C17.1927 14.4321 17.5 13.6902 17.5 12.9167C17.5 12.1431 17.1927 11.4013 16.6457 10.8543C16.0987 10.3073 15.3569 10 14.5833 10H5.41667C4.64312 10 3.90125 9.69271 3.35427 9.14573C2.80729 8.59875 2.5 7.85689 2.5 7.08334C2.5 6.30979 2.80729 5.56792 3.35427 5.02094C3.90125 4.47396 4.64312 4.16667 5.41667 4.16667H12.5" stroke="#93C5FD" stroke-width="1.66667" stroke-linecap="round" stroke-linejoin="round"/>
    <path d="M15 6.66667C16.3807 6.66667 17.5 5.54738 17.5 4.16667C17.5 2.78596 16.3807 1.66667 15 1.66667C13.6193 1.66667 12.5 2.78596 12.5 4.16667C12.5 5.54738 13.6193 6.66667 15 6.66667Z" stroke="#93C5FD" stroke-width="1.66667" stroke-linecap="round" stroke-linejoin="round"/>
  </symbol>

  <symbol id="icon-drivers" viewBox="0 0 20 20" fill="none">
    <circle cx="7" cy="6" r="2.5" stroke="currentColor" stroke-width="1.7"/>
    <path d="M2.5 15.5c0-2.3 2.2-4 4.5-4s4.5 1.7 4.5 4" stroke="currentColor" stroke-width="1.7" stroke-linecap="round"/>
    <circle cx="14.5" cy="7.5" r="2" stroke="currentColor" stroke-width="1.7"/>
    <path d="M12.2 15.5c.2-1.6 1.6-2.8 3.3-2.8 1 0 1.9.4 2.5 1" stroke="currentColor" stroke-width="1.7" stroke-linecap="round"/>
  </symbol>

  <symbol id="icon-settings" viewBox="0 0 20 20" fill="none">
    <path d="M10.1833 1.66666H9.81667C9.37464 1.66666 8.95072 1.84225 8.63816 2.15481C8.3256 2.46737 8.15 2.8913 8.15 3.33332V3.48332C8.1497 3.77559 8.07255 4.06265 7.92628 4.31569C7.78002 4.56873 7.56978 4.77885 7.31667 4.92499L6.95834 5.13332C6.70497 5.2796 6.41756 5.35661 6.125 5.35661C5.83244 5.35661 5.54503 5.2796 5.29167 5.13332L5.16667 5.06666C4.78422 4.84604 4.32987 4.78619 3.90334 4.90025C3.47681 5.0143 3.11296 5.29294 2.89167 5.67499L2.70833 5.99166C2.48772 6.3741 2.42787 6.82846 2.54192 7.25499C2.65598 7.68152 2.93461 8.04536 3.31667 8.26666L3.44167 8.34999C3.69356 8.49542 3.90302 8.70423 4.04921 8.95568C4.1954 9.20713 4.27325 9.49247 4.275 9.78332V10.2083C4.27617 10.502 4.19971 10.7908 4.05337 11.0454C3.90703 11.3 3.69601 11.5115 3.44167 11.6583L3.31667 11.7333C2.93461 11.9546 2.65598 12.3185 2.54192 12.745C2.42787 13.1715 2.48772 13.6259 2.70833 14.0083L2.89167 14.325C3.11296 14.707 3.47681 14.9857 3.90334 15.0997C4.32987 15.2138 4.78422 15.1539 5.16667 14.9333L5.29167 14.8667C5.54503 14.7204 5.83244 14.6434 6.125 14.6434C6.41756 14.6434 6.70497 14.7204 6.95834 14.8667L7.31667 15.075C7.56978 15.2211 7.78002 15.4313 7.92628 15.6843C8.07255 15.9373 8.1497 16.2244 8.15 16.5167V16.6667C8.15 17.1087 8.3256 17.5326 8.63816 17.8452C8.95072 18.1577 9.37464 18.3333 9.81667 18.3333H10.1833C10.6254 18.3333 11.0493 18.1577 11.3618 17.8452C11.6744 17.5326 11.85 17.1087 11.85 16.6667V16.5167C11.8503 16.2244 11.9275 15.9373 12.0737 15.6843C12.22 15.4313 12.4302 15.2211 12.6833 15.075L13.0417 14.8667C13.295 14.7204 13.5824 14.6434 13.875 14.6434C14.1676 14.6434 14.455 14.7204 14.7083 14.8667L14.8333 14.9333C15.2158 15.1539 15.6701 15.2138 16.0967 15.0997C16.5232 14.9857 16.887 14.707 17.1083 14.325L17.2917 14C17.5123 13.6175 17.5721 13.1632 17.4581 12.7367C17.344 12.3101 17.0654 11.9463 16.6833 11.725L16.5583 11.6583C16.304 11.5115 16.093 11.3 15.9466 11.0454C15.8003 10.7908 15.7238 10.502 15.725 10.2083V9.79166C15.7238 9.49797 15.8003 9.2092 15.9466 8.95457C16.093 8.69994 16.304 8.4885 16.5583 8.34166L16.6833 8.26666C17.0654 8.04536 17.344 7.68152 17.4581 7.25499C17.5721 6.82846 17.5123 6.3741 17.2917 5.99166L17.1083 5.67499C16.887 5.29294 16.5232 5.0143 16.0967 4.90025C15.6701 4.78619 15.2158 4.84604 14.8333 5.06666L14.7083 5.13332C14.455 5.2796 14.1676 5.35661 13.875 5.35661C13.5824 5.35661 13.295 5.2796 13.0417 5.13332L12.6833 4.92499C12.4302 4.77885 12.22 4.56873 12.0737 4.31569C11.9275 4.06265 11.8503 3.77559 11.85 3.48332V3.33332C11.85 2.8913 11.6744 2.46737 11.3618 2.15481C11.0493 1.84225 10.6254 1.66666 10.1833 1.66666Z" stroke="#93C5FD" stroke-width="1.66667" stroke-linecap="round" stroke-linejoin="round"/>
    <path d="M10 12.5C11.3807 12.5 12.5 11.3807 12.5 10C12.5 8.61929 11.3807 7.5 10 7.5C8.61929 7.5 7.5 8.61929 7.5 10C7.5 11.3807 8.61929 12.5 10 12.5Z" stroke="#93C5FD" stroke-width="1.66667" stroke-linecap="round" stroke-linejoin="round"/>
  </symbol>

  <symbol id="icon-auth-truck" viewBox="0 0 24 24" fill="none">
    <path d="M14 18V6C14 5.46957 13.7893 4.96086 13.4142 4.58579C13.0391 4.21071 12.5304 4 12 4H4C3.46957 4 2.96086 4.21071 2.58579 4.58579C2.21071 4.96086 2 5.46957 2 6V17C2 17.2652 2.10536 17.5196 2.29289 17.7071C2.48043 17.8946 2.73478 18 3 18H5" stroke="currentColor" stroke-width="2" stroke-linecap="round" stroke-linejoin="round"/>
    <path d="M15 18H9" stroke="currentColor" stroke-width="2" stroke-linecap="round" stroke-linejoin="round"/>
    <path d="M19 18H21C21.2652 18 21.5196 17.8946 21.7071 17.7071C21.8946 17.5196 22 17.2652 22 17V13.35C21.9996 13.1231 21.922 12.903 21.78 12.726L18.3 8.376C18.2065 8.25888 18.0878 8.16428 17.9528 8.0992C17.8178 8.03412 17.6699 8.00021 17.52 8H14" stroke="currentColor" stroke-width="2" stroke-linecap="round" stroke-linejoin="round"/>
    <path d="M17 20C18.1046 20 19 19.1046 19 18C19 16.8954 18.1046 16 17 16C15.8954 16 15 16.8954 15 18C15 19.1046 15.8954 20 17 20Z" stroke="currentColor" stroke-width="2" stroke-linecap="round" stroke-linejoin="round"/>
    <path d="M7 20C8.10457 20 9 19.1046 9 18C9 16.8954 8.10457 16 7 16C5.89543 16 5 16.8954 5 18C5 19.1046 5.89543 20 7 20Z" stroke="currentColor" stroke-width="2" stroke-linecap="round" stroke-linejoin="round"/>
  </symbol>

  <symbol id="icon-auth-mail" viewBox="0 0 16 16" fill="none">
    <path d="M13.3333 2.66667H2.66667C1.93029 2.66667 1.33333 3.26362 1.33333 4V12C1.33333 12.7364 1.93029 13.3333 2.66667 13.3333H13.3333C14.0697 13.3333 14.6667 12.7364 14.6667 12V4C14.6667 3.26362 14.0697 2.66667 13.3333 2.66667Z" stroke="currentColor" stroke-width="1.33333" stroke-linecap="round" stroke-linejoin="round"/>
    <path d="M14.6667 4.66667L8.68667 8.46667C8.48085 8.59562 8.24288 8.66401 8 8.66401C7.75712 8.66401 7.51915 8.59562 7.31333 8.46667L1.33333 4.66667" stroke="currentColor" stroke-width="1.33333" stroke-linecap="round" stroke-linejoin="round"/>
  </symbol>

  <symbol id="icon-auth-lock" viewBox="0 0 16 16" fill="none">
    <path d="M12.6667 7.33333H3.33333C2.59695 7.33333 2 7.93029 2 8.66667V13.3333C2 14.0697 2.59695 14.6667 3.33333 14.6667H12.6667C13.403 14.6667 14 14.0697 14 13.3333V8.66667C14 7.93029 13.403 7.33333 12.6667 7.33333Z" stroke="currentColor" stroke-width="1.33333" stroke-linecap="round" stroke-linejoin="round"/>
    <path d="M4.66667 7.33333V4.66667C4.66667 3.78261 5.01786 2.93477 5.64298 2.30964C6.2681 1.68452 7.11594 1.33333 8 1.33333C8.88405 1.33333 9.7319 1.68452 10.357 2.30964C10.9821 2.93477 11.3333 3.78261 11.3333 4.66667V7.33333" stroke="currentColor" stroke-width="1.33333" stroke-linecap="round" stroke-linejoin="round"/>
  </symbol>

  <symbol id="icon-auth-arrow-right" viewBox="0 0 16 16" fill="none">
    <path d="M3.33333 8H12.6667" stroke="currentColor" stroke-width="1.33333" stroke-linecap="round" stroke-linejoin="round"/>
    <path d="M8 3.33333L12.6667 8L8 12.6667" stroke="currentColor" stroke-width="1.33333" stroke-linecap="round" stroke-linejoin="round"/>
  </symbol>
</svg>
