<svg preserveAspectRatio="none" width="100%" height="100%" overflow="visible" style="display: block;" viewBox="0 0 40 40" fill="none" xmlns="http://www.w3.org/2000/svg">
<g id="Icon">
<path id="Vector" d="M23.3333 30V10C23.3333 9.11595 22.9821 8.2681 22.357 7.64298C21.7319 7.01786 20.8841 6.66667 20 6.66667H6.66667C5.78261 6.66667 4.93477 7.01786 4.30964 7.64298C3.68452 8.2681 3.33333 9.11595 3.33333 10V28.3333C3.33333 28.7754 3.50893 29.1993 3.82149 29.5118C4.13405 29.8244 4.55797 30 5 30H8.33333" stroke="var(--stroke-0, #22C55E)" stroke-width="4.16667" stroke-linecap="round" stroke-linejoin="round"/>
<path id="Vector_2" d="M25 30H15" stroke="var(--stroke-0, #22C55E)" stroke-width="4.16667" stroke-linecap="round" stroke-linejoin="round"/>
<path id="Vector_3" d="M31.6667 30H35C35.442 30 35.866 29.8244 36.1785 29.5118C36.4911 29.1993 36.6667 28.7754 36.6667 28.3333V22.25C36.666 21.8718 36.5367 21.505 36.3 21.21L30.5 13.96C30.3441 13.7648 30.1464 13.6071 29.9213 13.4987C29.6963 13.3902 29.4498 13.3337 29.2 13.3333H23.3333" stroke="var(--stroke-0, #22C55E)" stroke-width="4.16667" stroke-linecap="round" stroke-linejoin="round"/>
<path id="Vector_4" d="M28.3333 33.3333C30.1743 33.3333 31.6667 31.8409 31.6667 30C31.6667 28.1591 30.1743 26.6667 28.3333 26.6667C26.4924 26.6667 25 28.1591 25 30C25 31.8409 26.4924 33.3333 28.3333 33.3333Z" stroke="var(--stroke-0, #22C55E)" stroke-width="4.16667" stroke-linecap="round" stroke-linejoin="round"/>
<path id="Vector_5" d="M11.6667 33.3333C13.5076 33.3333 15 31.8409 15 30C15 28.1591 13.5076 26.6667 11.6667 26.6667C9.82572 26.6667 8.33333 28.1591 8.33333 30C8.33333 31.8409 9.82572 33.3333 11.6667 33.3333Z" stroke="var(--stroke-0, #22C55E)" stroke-width="4.16667" stroke-linecap="round" stroke-linejoin="round"/>
</g>
</svg>
